<svg id="e79th4cou1" xmlns="http://www.w3.org/2000/svg" xmlns:xlink="http://www.w3.org/1999/xlink" viewBox="0 0 480.020000 356" shape-rendering="geometricPrecision" text-rendering="geometricPrecision"><style><![CDATA[#e79th4cou4 {animation: e79th4cou4_c_o 2000ms linear infinite normal forwards}@keyframes e79th4cou4_c_o { 0% {opacity: 0} 20% {opacity: 0} 25% {opacity: 1} 100% {opacity: 1} }#e79th4cou6 {animation: e79th4cou6_c_o 2000ms linear infinite normal forwards}@keyframes e79th4cou6_c_o { 0% {opacity: 0} 45% {opacity: 0} 50% {opacity: 1} 100% {opacity: 1} }#e79th4cou8 {animation: e79th4cou8_c_o 2000ms linear infinite normal forwards}@keyframes e79th4cou8_c_o { 0% {opacity: 0} 70% {opacity: 0} 75% {opacity: 1} 100% {opacity: 1} }]]></style>
  <path id="e79th4cou2" d="M399.750000,273.720000C397.860000,263.580000,394.860000,253.720000,391.880000,243.810000C388.866487,234.021540,384.579793,224.671504,379.130000,216Q376.340000,211.500000,373.210000,207.200000C363.377385,193.758858,350.716655,182.637624,336.120000,174.620000C331.120000,171.690000,326.050000,169.010000,321,166.450000C305.443424,158.463812,288.679990,153.088838,271.380000,150.540000C263.016111,149.349420,254.578201,148.754589,246.130000,148.760000C212.553389,148.932494,179.566330,157.598090,150.240000,173.950000C133.020000,183.630000,118.140000,195.850000,107.240000,209.300000C94.310000,225.140000,87.350000,242,86.530000,259.430000C85.778862,275.101206,90.975787,290.477675,101.080000,302.480000C110.600000,314,124,322.910000,139.860000,328.170000C152.772176,332.334739,166.171265,334.802108,179.720000,335.510000C184.120000,335.780000,188.720000,335.920000,193.330000,335.920000C208.546797,335.771802,223.736929,334.612581,238.800000,332.450000C239.890000,332.370000,240.980000,332.290000,242.080000,332.190000C245.752430,346.282019,258.517573,356.086473,273.080000,356C281.851628,355.995186,290.257015,352.482487,296.423702,346.244422C302.590389,340.006357,306.006129,331.561103,305.910000,322.790000C327.130000,319.420000,382.350000,311.910000,403.810000,307.790000C404.200000,307.720000,404.810000,307.540000,404.810000,307.540000C405.250000,300.600000,403.230000,292.460000,399.750000,273.720000ZM379.570000,247.530000L379.750000,248.100000C382.650000,257.730000,385.390000,266.820000,387.110000,276.100000C387.820000,279.940000,388.470000,283.340000,389.060000,286.370000C389.870000,290.630000,390.540000,294.110000,391.060000,297.020000C375.830000,299.550000,353.760000,302.770000,335.270000,305.460000C322.090000,307.380000,310.560000,309.060000,303.220000,310.230000C298.137073,298.546006,286.581566,291.014081,273.840000,291.080000C257.462729,291.087315,243.594091,303.159983,241.330000,319.380000C234.180000,320.020000,227.060000,320.380000,220,320.380000C216.170000,320.380000,212.380000,320.260000,208.740000,320.050000C197.419239,319.468061,186.225333,317.390009,175.450000,313.870000C163.360000,309.800000,152.730000,302.710000,145.520000,293.870000C138.062146,285.037022,134.161918,273.742761,134.580000,262.190000C134.990000,248.660000,140.210000,235.340000,150.080000,222.610000C158.900000,211.240000,171.080000,200.830000,185.330000,192.520000C208.940000,178.730000,237.850000,170.640000,264.660000,170.310000L266.510000,170.310000C307.190000,170.310000,342.300000,186.490000,362.830000,214.690000C364.770000,217.350000,366.580000,220.050000,368.230000,222.690000C373.077437,230.439849,376.889808,238.790757,379.570000,247.530000Z" fill="rgb(41, 122, 195)" stroke="none" stroke-width="1"/><path id="e79th4cou3" d="M82.120000,186.510000C77.836729,186.516235,73.969807,183.946402,72.316650,179.995007C70.663493,176.043612,71.548380,171.485751,74.560000,168.440000C131.920000,110.210000,205.390000,100.750000,244.080000,100.300000L246.340000,100.300000C292.150000,100.300000,332.790000,116.460000,358.980000,130.150000C387.720000,145.150000,405.460000,160.240000,406.200000,160.870000C410.493646,164.722920,410.926243,171.298851,407.174344,175.681047C403.422445,180.063243,396.858370,180.648843,392.390000,177C392.080000,176.740000,375.280000,162.550000,348.650000,148.710000C324.300000,136,286.420000,121,244.320000,121.530000C208.900000,121.950000,141.710000,130.530000,89.690000,183.350000C87.691734,185.374687,84.964717,186.513046,82.120000,186.510000Z" transform="matrix(1 0 0 1 -0.60077470000002 0)" fill="rgb(233,242,246)" stroke="none" stroke-width="1"/><path id="e79th4cou4" d="M82.120000,186.510000C77.836729,186.516235,73.969807,183.946402,72.316650,179.995007C70.663493,176.043612,71.548380,171.485751,74.560000,168.440000C131.920000,110.210000,205.390000,100.750000,244.080000,100.300000L246.340000,100.300000C292.150000,100.300000,332.790000,116.460000,358.980000,130.150000C387.720000,145.150000,405.460000,160.240000,406.200000,160.870000C410.493646,164.722920,410.926243,171.298851,407.174344,175.681047C403.422445,180.063243,396.858370,180.648843,392.390000,177C392.080000,176.740000,375.280000,162.550000,348.650000,148.710000C324.300000,136,286.420000,121,244.320000,121.530000C208.900000,121.950000,141.710000,130.530000,89.690000,183.350000C87.691734,185.374687,84.964717,186.513046,82.120000,186.510000Z" transform="matrix(1 0 0 1 -0.60077470000002 0)" opacity="0" fill="rgb(41, 122, 195)" stroke="none" stroke-width="1"/><path id="e79th4cou5" d="M43.780000,146.930000C38.871743,146.921104,34.472494,143.899599,32.702377,139.321635C30.932261,134.743671,32.154475,129.548570,35.780000,126.240000C106,62.180000,195.900000,51.820000,243.240000,51.350000C300.340000,50.770000,351.170000,68.920000,383.770000,84.240000C419.040000,100.800000,440.770000,117.420000,441.690000,118.120000C446.903568,122.124064,447.884064,129.596432,443.880000,134.810000C439.875936,140.023568,432.403568,141.004064,427.190000,137L427.190000,137C426.980000,136.840000,406.190000,121,373.080000,105.520000C343.310000,91.600000,297.250000,75.150000,245.860000,75.150000L243.480000,75.150000C199.530000,75.590000,116.200000,85.090000,51.800000,143.820000C49.610048,145.823764,46.748324,146.933485,43.780000,146.930000Z" transform="matrix(1 0 0 1 0.75728748000000 1.16677165000000)" fill="rgb(233,242,246)" stroke="none" stroke-width="1"/><path id="e79th4cou6" d="M43.780000,146.930000C38.871743,146.921104,34.472494,143.899599,32.702377,139.321635C30.932261,134.743671,32.154475,129.548570,35.780000,126.240000C106,62.180000,195.900000,51.820000,243.240000,51.350000C300.340000,50.770000,351.170000,68.920000,383.770000,84.240000C419.040000,100.800000,440.770000,117.420000,441.690000,118.120000C446.903568,122.124064,447.884064,129.596432,443.880000,134.810000C439.875936,140.023568,432.403568,141.004064,427.190000,137L427.190000,137C426.980000,136.840000,406.190000,121,373.080000,105.520000C343.310000,91.600000,297.250000,75.150000,245.860000,75.150000L243.480000,75.150000C199.530000,75.590000,116.200000,85.090000,51.800000,143.820000C49.610048,145.823764,46.748324,146.933485,43.780000,146.930000Z" transform="matrix(1 0 0 1 0.75728748000000 1.16677165000000)" opacity="0" fill="rgb(41, 122, 195)" stroke="none" stroke-width="1"/><path id="e79th4cou7" d="M13.160000,112.070000C7.759881,112.075425,2.905386,108.778885,0.918874,103.757423C-1.067638,98.735962,0.217703,93.010475,4.160000,89.320000C85.610000,12.940000,189.910000,0.580000,244.830000,0C275.307615,-0.150890,305.663616,3.852617,335.060000,11.900000C360.129632,18.700911,384.506329,27.837569,407.870000,39.190000C448.770000,59,474,78.750000,475,79.580000C480.498906,84.144247,481.350270,92.262824,476.917850,97.868532C472.485429,103.474241,464.389351,104.518095,458.680000,100.220000C458.410000,100.010000,434.220000,81.090000,395.770000,62.600000C361.200000,46,307.650000,26.310000,247.900000,26.310000L245.100000,26.310000C194.010000,26.840000,97.100000,38.210000,22.160000,108.490000C19.726423,110.787568,16.506806,112.068260,13.160000,112.070000Z" transform="matrix(1 0 0 1 0.00369617000001 0.00411098000000)" fill="rgb(233,242,246)" stroke="none" stroke-width="1"/><path id="e79th4cou8" d="M13.160000,112.070000C7.759881,112.075425,2.905386,108.778885,0.918874,103.757423C-1.067638,98.735962,0.217703,93.010475,4.160000,89.320000C85.610000,12.940000,189.910000,0.580000,244.830000,0C275.307615,-0.150890,305.663616,3.852617,335.060000,11.900000C360.129632,18.700911,384.506329,27.837569,407.870000,39.190000C448.770000,59,474,78.750000,475,79.580000C480.498906,84.144247,481.350270,92.262824,476.917850,97.868532C472.485429,103.474241,464.389351,104.518095,458.680000,100.220000C458.410000,100.010000,434.220000,81.090000,395.770000,62.600000C361.200000,46,307.650000,26.310000,247.900000,26.310000L245.100000,26.310000C194.010000,26.840000,97.100000,38.210000,22.160000,108.490000C19.726423,110.787568,16.506806,112.068260,13.160000,112.070000Z" transform="matrix(1 0 0 1 0.00369617000001 0.00411098000000)" opacity="0" fill="rgb(41, 122, 195)" stroke="none" stroke-width="1"/></svg>