<?xml version="1.0" encoding="UTF-8"?>
<svg width="109px" height="21px" viewBox="0 0 109 21" version="1.1" xmlns="http://www.w3.org/2000/svg" xmlns:xlink="http://www.w3.org/1999/xlink">
    <!-- Generator: Sketch 50.2 (55047) - http://www.bohemiancoding.com/sketch -->
    <title>Logo / Camplify horizontal</title>
    <desc>Created with Sketch.</desc>
    <defs></defs>
    <g id="Designs" stroke="none" stroke-width="1" fill="none" fill-rule="evenodd">
        <g id="Homepage-–-Index" transform="translate(-30.000000, -21.000000)" fill="rgb(39, 161, 238)">
            <g id="Globals-/-Navigation">
                <g id="Logo-/-Camplify-White" transform="translate(30.000000, 21.000000)">
                    <g id="Logo-/-Camplify-horizontal">
                        <path d="M21.6442857,14.1011111 C21.8102798,14.6123096 21.9505977,15.1314756 22.0647143,15.6566667 C22.0647143,15.8744444 22.1425714,16.0688889 22.1737143,16.24 C22.2048571,16.4111111 22.2593571,16.6833333 22.2827143,16.8466667 C21.4185,16.9866667 20.1572143,17.1733333 19.1061429,17.3288889 L17.2765,17.6011111 C16.9891921,16.9332618 16.3302189,16.5015385 15.6025714,16.5044444 C14.6664542,16.5038877 13.8743869,17.1954089 13.7495714,18.1222222 C13.3447143,18.1222222 12.971,18.1766667 12.535,18.1766667 L11.8887857,18.1766667 C11.2509651,18.1620608 10.6176937,18.065337 10.0046429,17.8888889 C9.33773721,17.6796884 8.74383724,17.2859566 8.29178571,16.7533333 C7.87108285,16.2477203 7.64960232,15.6060815 7.66892857,14.9488889 C7.71566036,14.1154779 8.0295815,13.3192037 8.56428571,12.6777778 C9.11928899,11.9854232 9.80095507,11.4047501 10.573,10.9666667 C11.9515534,10.1741883 13.5064844,9.73839593 15.0965,9.69888889 L15.1977143,9.69888889 C17.3295854,9.61279426 19.3735797,10.5527674 20.6944286,12.2266667 C20.8034286,12.3822222 20.9046429,12.5377778 20.9980714,12.6855556 C21.2773569,13.1266667 21.4972491,13.602614 21.6520714,14.1011111 M22.7887857,15.5555556 C22.6797857,14.98 22.5085,14.42 22.345,13.8522222 C22.1691906,13.3043559 21.9231984,12.7815016 21.6131429,12.2966667 C21.5119286,12.1255556 21.3951429,11.9622222 21.2783571,11.7988889 C20.7142885,11.0345096 19.9919982,10.4004971 19.1606429,9.94 C18.8803571,9.77666667 18.5922857,9.62111111 18.3042143,9.48111111 C17.41668,9.01958651 16.4592565,8.70690176 15.4702143,8.55555556 C14.9877327,8.49067007 14.5010548,8.46207114 14.0142857,8.47 C12.1065278,8.48516288 10.2329165,8.97715296 8.56428571,9.90111111 C7.62977101,10.4162666 6.79836794,11.0991679 6.11178571,11.9155556 C5.42125544,12.718058 5.00887681,13.7220358 4.93614286,14.7777778 C4.88979348,15.669511 5.18485453,16.5454495 5.76142857,17.2277778 C6.34761207,17.9064425 7.11425763,18.4053328 7.97257143,18.6666667 C8.70878725,18.905174 9.47309068,19.0463737 10.246,19.0866667 C10.4951429,19.0866667 10.7598571,19.0866667 11.0245714,19.0866667 C11.8920049,19.0760586 12.7579187,19.0111164 13.6172143,18.8922222 L13.8040714,18.8922222 C14.0020306,19.7063309 14.732793,20.2787675 15.5714286,20.2766667 L15.8672857,20.2766667 C16.7727015,20.1172922 17.4307786,19.3284047 17.4244286,18.41 C18.6312143,18.2155556 21.7844286,17.7877778 23.0067857,17.5544444 L23.0612857,17.5544444 C23.045736,16.8800511 22.9543285,16.2095427 22.7887857,15.5555556" id="Shape" fill-rule="nonzero"></path>
                        <path d="M4.67142857,10.6244444 C4.43007297,10.6164376 4.2157387,10.4680793 4.12345448,10.2451468 C4.03117027,10.0222142 4.07801305,9.7659605 4.24321429,9.59 C6.83237987,7.08361207 10.2999546,5.68794727 13.9052857,5.70111111 L14.0142857,5.70111111 C16.2598695,5.75485987 18.4608741,6.33853096 20.4375,7.40444444 C21.3925261,7.89502349 22.2951239,8.48137461 23.1313571,9.15444444 C23.32968,9.28214257 23.4360094,9.51303843 23.4040372,9.74657322 C23.372065,9.98010801 23.2075793,10.1740033 22.9822162,10.2438146 C22.7568531,10.3136259 22.5114118,10.2467149 22.3527857,10.0722222 C21.5805327,9.45057711 20.7455493,8.91099782 19.8613571,8.46222222 C18.0338759,7.47033588 15.9926487,6.93652791 13.9130714,6.90666667 C10.6303092,6.89300299 7.47253053,8.16320183 5.11521429,10.4455556 C4.99942508,10.5606556 4.84256018,10.6250166 4.67921429,10.6244444" id="Shape" fill-rule="nonzero"></path>
                        <path d="M2.49921429,8.36888889 C2.30783153,8.36838261 2.1249841,8.28969785 1.99314286,8.15111111 C1.74038998,7.87156327 1.76126768,7.44053061 2.03985714,7.18666667 C6.04171429,3.53888889 11.1725,2.95555556 13.8663571,2.92444444 C16.6424823,2.95198769 19.378211,3.592064 21.8778571,4.79888889 C23.0413794,5.32737214 24.1475525,5.97371948 25.179,6.72777778 C25.3232793,6.83581604 25.4178417,6.99741974 25.4412885,7.17601909 C25.4647352,7.35461844 25.4150843,7.53511608 25.3035714,7.67666667 C25.1941389,7.81900962 25.0325812,7.91209024 24.8544449,7.93542857 C24.6763085,7.9587669 24.496188,7.91045086 24.3537143,7.80111111 C23.3767651,7.10437282 22.3336602,6.50519894 21.2394286,6.01222222 C18.9829173,4.9245754 16.5191141,4.33312277 14.0142857,4.27777778 L13.8819286,4.27777778 C11.3749286,4.27777778 6.62564286,4.84555556 2.98192857,8.16666667 C2.85954692,8.28132514 2.69813853,8.34526667 2.53035714,8.34555556" id="Shape" fill-rule="nonzero"></path>
                        <path d="M0.778571429,6.38555556 C0.476867586,6.37301275 0.209632685,6.18732569 0.0929005198,5.90911998 C-0.0238316451,5.63091427 0.0309937469,5.31036949 0.233571429,5.08666667 C4.88164286,0.777777778 10.8299286,-2.31422954e-16 13.9597857,-2.31422954e-16 C15.6979789,-0.00801645559 17.4292237,0.219615563 19.1061429,0.676666667 C20.5347588,1.06532419 21.9240235,1.58609285 23.2559286,2.23222222 C24.6062386,2.88272698 25.8892655,3.66426296 27.0865,4.56555556 C27.2935456,4.84829513 27.2858293,5.23441669 27.0676526,5.50867589 C26.8494758,5.78293509 26.4746876,5.87764117 26.1522143,5.74 C25.0358622,4.89803767 23.8388099,4.16855403 22.5785714,3.56222222 C19.948034,2.26486068 17.064106,1.56120917 14.1310714,1.50111111 L14.0142857,1.50111111 C11.0635,1.55555556 5.53564286,2.17777778 1.26128571,6.22222222 C1.1232807,6.3292251 0.953262418,6.38675323 0.778571429,6.38555556" id="Shape" fill-rule="nonzero"></path>
                        <path d="M39.6137143,7 L38.4302857,8.39222222 C37.6901104,7.61564996 36.6535502,7.19126327 35.5807143,7.22555556 C34.7525035,7.22079472 33.960215,7.56305291 33.3964217,8.16914112 C32.8326284,8.77522933 32.5489573,9.58964772 32.6143571,10.4144444 C32.5465189,11.2398217 32.8293601,12.0556363 33.3936811,12.6622919 C33.9580022,13.2689474 34.7517454,13.610481 35.5807143,13.6033333 C36.6855937,13.6745966 37.7646835,13.2496746 38.5237143,12.4444444 L39.7071429,13.6033333 C38.6732024,14.867165 37.0949598,15.5585695 35.4639286,15.4622222 C34.1061512,15.5277358 32.783988,15.0164436 31.8242597,14.0547299 C30.8645314,13.0930162 30.3568006,11.770629 30.4265714,10.4144444 C30.3526156,9.05433989 30.8579061,7.72642814 31.8175858,6.75883614 C32.7772655,5.79124413 34.1018115,5.27423277 35.4639286,5.33555556 C37.0260873,5.24656469 38.5468885,5.85654539 39.6137143,7" id="Shape" fill-rule="nonzero"></path>
                        <path d="M47.7887143,11.8766667 L47.7887143,10.9588889 L45.0870714,10.9588889 C43.6778571,10.9588889 43.0160714,11.3322222 43.0160714,12.2966667 C43.0160714,13.2611111 43.7479286,13.7744444 44.9547143,13.7744444 C46.5118571,13.7744444 47.6797143,12.9966667 47.7887143,11.8766667 Z M47.7887143,14.1711111 C46.9506032,15.0950636 45.7321106,15.5802413 44.4875714,15.4855556 C42.3231429,15.4855556 40.9762143,14.1477778 40.9762143,12.3744444 C40.9762143,10.6011111 42.3465,9.38777778 44.7522857,9.37222222 L47.7731429,9.37222222 L47.7731429,9.06888889 C47.7731429,7.80888889 46.9945714,7.06222222 45.3907143,7.06222222 C44.3274368,7.09362497 43.2986403,7.44615062 42.4399286,8.07333333 L41.5757143,6.58777778 C42.8415089,5.73072579 44.3448893,5.29268683 45.8734286,5.33555556 C48.4427143,5.33555556 49.8908571,6.64222222 49.9142143,8.84333333 L49.9142143,15.3922222 L47.8042857,15.3922222 L47.7887143,14.1711111 Z" id="Shape" fill-rule="nonzero"></path>
                        <path d="M68.7322857,9.17777778 L68.7322857,15.4 L66.5678571,15.4 L66.5678571,9.77666667 C66.6327361,9.13118685 66.4113115,8.48971067 65.9619643,8.02136959 C65.512617,7.55302851 64.880451,7.304833 64.2321429,7.34222222 C62.5270714,7.39666667 61.4915714,8.71111111 61.4915714,10.4533333 L61.4915714,15.3922222 L59.3037857,15.3922222 L59.3037857,9.77666667 C59.3714316,9.13054922 59.150933,8.48744376 58.7009512,8.01844127 C58.2509693,7.54943879 57.6171345,7.30209839 56.9680714,7.34222222 C56.177173,7.36053581 55.4292709,7.70559599 54.902496,8.2952184 C54.375721,8.88484081 54.1172237,9.66624955 54.1885714,10.4533333 L54.1885714,15.3922222 L52.0319286,15.3922222 L52.0319286,5.44444444 L54.173,5.44444444 L54.173,7.34222222 C54.8562407,5.99357052 56.2943302,5.19818666 57.8011429,5.33555556 C59.3809407,5.20999825 60.8315712,6.21075779 61.2735714,7.73111111 C61.912,6.06666667 63.2433571,5.33555556 65.0652143,5.33555556 C67.4009286,5.33555556 68.7322857,6.79777778 68.7322857,9.17777778" id="Shape" fill-rule="nonzero"></path>
                        <path d="M79.0717143,10.36 C79.1285569,9.23823367 78.5618275,8.17650254 77.5977286,7.5985825 C76.6336297,7.02066245 75.429156,7.02066245 74.4650571,7.5985825 C73.5009583,8.17650254 72.9342288,9.23823367 72.9910714,10.36 C72.890193,11.5086521 73.4466092,12.615886 74.4289537,13.2212973 C75.4112983,13.8267087 76.6514874,13.8267087 77.633832,13.2212973 C78.6161766,12.615886 79.1725927,11.5086521 79.0717143,10.36 M81.2517143,10.4377778 C81.2517143,13.4166667 79.3753571,15.4622222 76.518,15.4622222 C75.1025217,15.5498293 73.7513449,14.8615209 72.9910714,13.6655556 L72.9910714,19.0244444 L70.85,19.0244444 L70.85,5.44444444 L73.0144286,5.44444444 L73.0144286,7.13222222 C73.7677672,5.94887374 75.1005281,5.26236942 76.5024286,5.33555556 C79.3442143,5.33555556 81.2750714,7.39666667 81.2750714,10.4377778" id="Shape" fill-rule="nonzero"></path>
                        <rect id="Rectangle-path" fill-rule="nonzero" x="83.2059286" y="1.47" width="2.15664286" height="13.9222222"></rect>
                        <path d="M87.6749286,5.44444444 L89.816,5.44444444 L89.816,15.3922222 L87.6749286,15.3922222 L87.6749286,5.44444444 Z M90.0106429,2.59777778 C90.0106429,3.04793246 89.7702432,3.46389256 89.38,3.68896991 C88.9897569,3.91404727 88.5089574,3.91404727 88.1187142,3.68896991 C87.7284711,3.46389256 87.4880714,3.04793246 87.4880714,2.59777778 C87.4880714,1.90189899 88.0527683,1.33777778 88.7493571,1.33777778 C89.445946,1.33777778 90.0106429,1.90189899 90.0106429,2.59777778 Z" id="Shape" fill-rule="nonzero"></path>
                        <path d="M94.9857143,4.60444444 L94.9857143,5.77888889 L97.5939286,5.77888889 L97.5939286,7.39666667 L94.9857143,7.39666667 L94.9857143,15.3922222 L92.8446429,15.3922222 L92.8446429,7.39666667 L91.5288571,7.39666667 L91.5288571,5.77888889 L92.8446429,5.77888889 L92.8446429,4.80666667 C92.797144,3.88324353 93.1436077,2.98296721 93.7980951,2.32914697 C94.4525825,1.67532672 95.3537775,1.32921627 96.2781429,1.37666667 C97.0848838,1.36461116 97.8749141,1.60682158 98.536,2.06888889 L97.7029286,3.71777778 C97.3040336,3.42714674 96.82618,3.26440815 96.3326429,3.25111111 C95.9652725,3.21964984 95.602825,3.3523857 95.3428545,3.61359231 C95.0828841,3.87479891 94.952104,4.23763599 94.9857143,4.60444444" id="Shape" fill-rule="nonzero"></path>
                        <path d="M104.453143,16.7611111 C104.010409,18.1733449 102.687585,19.1240474 101.2065,19.0944444 C100.348395,19.1185059 99.5132911,18.8153941 98.8707857,18.2466667 L99.7895,16.5744444 C100.155083,16.8797631 100.613356,17.0524684 101.089714,17.0644444 C101.778851,17.0546378 102.387057,16.6121905 102.607929,15.96 L102.9505,15.1822222 L98.8785714,5.44444444 L101.113071,5.44444444 L104.102786,13.0044444 L106.843357,5.44444444 L109,5.44444444 L104.453143,16.7611111 Z" id="Shape" fill-rule="nonzero"></path>
                    </g>
                </g>
            </g>
        </g>
    </g>
</svg>